<?xml version="1.0"?>
<svg xmlns="http://www.w3.org/2000/svg" xmlns:xlink="http://www.w3.org/1999/xlink" viewBox="0 0 512 512" width="512" height="512"><linearGradient id="a" gradientUnits="userSpaceOnUse" x1="256.012" x2="256.012" y1="20.767" y2="486.781"><stop offset="0" stop-color="#00efd1"/><stop offset="1" stop-color="#00acea"/></linearGradient><path d="m164.97 28.954a10 10 0 0 0 -17.511 5.117l-53.05 382.087a10 10 0 0 0 15.962 9.332l101.94-77.6 38.589 131.451a10 10 0 0 0 12.412 6.779l55.03-16.155a10 10 0 0 0 6.778-12.415l-37.795-128.614 119.575 9.713a10 10 0 0 0 8.415-16.46zm109.466 278.869a10 10 0 0 0 -10.4 12.787l39.074 132.982-35.838 10.521-39.863-135.8a10 10 0 0 0 -15.652-5.14l-94.2 71.712 46.651-336.02 220.171 257.889z" fill="url(#a)"/></svg>
