<svg id="Layer_1" enable-background="new 0 0 512 512" height="512" viewBox="0 0 512 512" width="512" xmlns="http://www.w3.org/2000/svg"><g><path d="m436 56h-360c-41.907 0-76 34.093-76 76v248c0 41.907 34.093 76 76 76h360c41.907 0 76-34.093 76-76v-84-80-84c0-41.907-34.093-76-76-76zm0 368h-360c-24.262 0-44-19.738-44-44v-248c0-24.262 19.738-44 44-44h360c24.262 0 44 19.738 44 44v68h-88c-30.878 0-56 25.122-56 56s25.122 56 56 56h88v68c0 24.262-19.738 44-44 44zm44-144h-88c-13.234 0-24-10.766-24-24s10.766-24 24-24h88z"/></g></svg>